# Blender v2.92.0 OBJ File: ''
# www.blender.org
mtllib ethereum.mtl
o Ethereum_Cone.001_Material_0
v -0.000000 -0.160000 0.930000
v -0.930000 -0.160000 0.000000
v 0.000000 -2.020000 -0.000000
v -0.000000 0.120000 0.930000
v 0.930000 0.120000 -0.000000
v 0.000000 1.980000 -0.000000
v -0.000000 0.120000 -0.930000
v -0.930000 0.120000 0.000000
v 0.000000 1.980000 -0.000000
v 0.930000 0.120000 -0.000000
v -0.000000 0.120000 -0.930000
v 0.000000 1.980000 -0.000000
v -0.930000 -0.160000 0.000000
v -0.000000 -0.160000 -0.930000
v 0.000000 -2.020000 -0.000000
v -0.000000 -0.160000 -0.930000
v 0.930000 -0.160000 -0.000000
v 0.000000 -2.020000 -0.000000
v -0.930000 0.120000 0.000000
v -0.000000 0.120000 0.930000
v 0.000000 1.980000 -0.000000
v 0.930000 -0.160000 -0.000000
v -0.000000 -0.160000 0.930000
v 0.000000 -2.020000 -0.000000
v -0.000000 0.120000 -0.930000
v -0.930000 0.120000 0.000000
v -0.000000 0.120000 0.930000
v 0.930000 0.120000 -0.000000
vt 0.250000 0.973200
vt 0.473200 0.750000
vt 0.250000 0.750000
vt 0.250000 0.973200
vt 0.473200 0.750000
vt 0.250000 0.750000
vt 0.250000 0.526800
vt 0.026800 0.750000
vt 0.250000 0.750000
vt 0.473200 0.750000
vt 0.250000 0.526800
vt 0.250000 0.750000
vt 0.473200 0.750000
vt 0.250000 0.526800
vt 0.250000 0.750000
vt 0.250000 0.526800
vt 0.026800 0.750000
vt 0.250000 0.750000
vt 0.026800 0.750000
vt 0.250000 0.973200
vt 0.250000 0.750000
vt 0.026800 0.750000
vt 0.250000 0.973200
vt 0.250000 0.750000
vt 0.750000 0.491250
vt 0.866250 0.375000
vt 0.750000 0.258750
vt 0.633750 0.375000
vn -0.6666 -0.3333 0.6666
vn 0.6666 0.3333 0.6666
vn -0.6666 0.3333 -0.6666
vn 0.6666 0.3333 -0.6666
vn -0.6666 -0.3333 -0.6666
vn 0.6666 -0.3333 -0.6666
vn -0.6666 0.3333 0.6666
vn 0.6666 -0.3333 0.6666
vn 0.0000 1.0000 0.0000
usemtl Material.001
s 1
f 1/1/1 2/2/1 3/3/1
f 4/4/2 5/5/2 6/6/2
f 7/7/3 8/8/3 9/9/3
f 10/10/4 11/11/4 12/12/4
f 13/13/5 14/14/5 15/15/5
f 16/16/6 17/17/6 18/18/6
f 19/19/7 20/20/7 21/21/7
f 22/22/8 23/23/8 24/24/8
f 25/25/9 26/26/9 27/27/9
f 25/25/9 27/27/9 28/28/9
